<?xml version="1.0" encoding="UTF-8"?><svg xmlns="http://www.w3.org/2000/svg" viewBox="0 0 1333.31 999.98"><defs><style>.cls-1{fill:#fff9c6;}.cls-2{fill:#fffcc2;}.cls-3{fill:#b8d4eb;}.cls-4{fill:#a8c5db;}.cls-5{fill:#a9c5d9;}.cls-6{fill:#4d4d4d;}.cls-7{fill:none;stroke:#000;stroke-miterlimit:10;stroke-width:7px;}</style></defs><g id="Layer_3"><rect class="cls-2" x="531.45" y="748.07" width="302" height="166"/><path d="m826.45,749.41v43.66l-144.24,6.84-143.76,6.82v-43.66l144.33-6.85,143.67-6.82m7-7.34l-151,7.16-151,7.16v57.67l151.09-7.17,150.91-7.16v-57.67h0Z"/><path d="m826.45,849.06v43.66l-144.24,6.84-143.76,6.82v-43.66l144.33-6.85,143.67-6.82m7-7.34l-151,7.16-151,7.16v57.67l151.09-7.17,150.91-7.16v-57.67h0Z"/></g><g id="Layer_2"><path class="cls-5" d="m665.95,970.76c-37.23,0-77.3-4.88-112.82-13.75-30.7-7.66-47.29-15.52-50.13-18.42v-55.24c5.77-1.19,19.71-3.82,31.93-4.29l-.48,24.7,2.76.64c.51.12,51.28,11.74,107.09,11.74,10.22,0,20.12-.39,29.44-1.16,1.47-.08,31.79-1.81,63.6-7.29,44.03-7.59,70.11-18.61,77.54-32.74,26.14-30.75,8.63-75.85,7.87-77.76-16.27-38.29-49-40.22-55.4-40.22-.68,0-1.05.02-1.05.02l-.27.02-.28.06c-58.95,12.77-184,12.92-185.26,12.92h-.12c-2.59.09-5.23.13-7.87.13-47.38,0-87.92-14.34-97.51-18.02v-252.59l31.5-10.47v-67.05c0-77.47,81.2-140.5,181-140.5s181,63.03,181,140.5v489.46c-3.73,9.87-21.83,24.97-61.86,38.39-39.89,13.37-89.48,20.8-139.65,20.91h-1.04Z"/><path d="m687.5,285c97.87,0,177.5,61.46,177.5,137v488.78c-3.78,8.74-21.33,22.96-59.47,35.75-39.54,13.25-88.74,20.62-138.54,20.73h-1.04c-46.33,0-85.32-7.14-109.87-13.12-27.69-6.75-44.7-13.99-49.58-17.26v-50.65c5.85-1.13,15.58-2.81,24.86-3.46l-.35,18.09-.11,5.67,5.53,1.28c2.08.48,51.67,11.83,107.89,11.83,10.3,0,20.28-.39,29.68-1.17,2.35-.13,31.95-1.82,63.95-7.34,45.44-7.84,71.58-19.03,79.86-34.21,27.13-32.32,9-79.04,8.21-81.03l-.03-.08-.03-.07c-17.1-40.24-51.81-42.28-58.59-42.28-.69,0-1.13.02-1.24.03l-.55.03-.54.12c-58.58,12.69-183.27,12.84-184.52,12.84h-.24c-2.55.09-5.16.13-7.75.13-43.74,0-81.6-12.4-94.01-16.94v-247.64l26.71-8.88,4.79-1.59v-69.58c0-75.54,79.63-137,177.5-137m0-7c-101.9,0-184.5,64.47-184.5,144v64.53l-31.5,10.47v257.5s45.55,19.13,101.01,19.13c2.64,0,5.31-.04,7.99-.13,0,0,126,0,186-13,0,0,.3-.02.85-.02,5.54,0,36.69,1.65,52.15,38.02,0,0,17.91,45-7.54,74.5-15.96,32-138.46,38.5-138.46,38.5-9.75.81-19.56,1.15-29.2,1.15-56.06,0-106.3-11.65-106.3-11.65l.5-25.5c-17,0-39,5.03-39,5.03v58.97c1.3,7.37,75.92,34.76,166.45,34.76.35,0,.7,0,1.05,0,111-.26,196-35.26,205-62.2v-490.06c0-79.53-82.6-144-184.5-144h0Z"/><path class="cls-3" d="m687.5,308.25c-16.79,0-32.51-2.65-44.28-7.46-10.62-4.34-16.72-9.96-16.72-15.41,0-12.46,27.84-36.88,61.5-36.88s60.5,24.58,60.5,36.88c0,10.82-25.05,22.88-61,22.88Z"/><path d="m688,252c19.63,0,34.29,8.41,41.28,13.42,11.53,8.26,15.72,16.46,15.72,19.96,0,3.78-5.71,8.56-14.54,12.17-11.36,4.65-26.62,7.2-42.96,7.2s-31.6-2.56-42.96-7.2c-8.83-3.61-14.54-8.39-14.54-12.17,0-.75.27-3.56,3.77-8.29,2.97-4.01,7.26-8.03,12.39-11.63,7.17-5.03,22.13-13.46,41.84-13.46m0-7c-35.62,0-65,25.81-65,40.38s28.88,26.38,64.5,26.38,64.5-11.81,64.5-26.38-28.38-40.38-64-40.38h0Z"/><path class="cls-3" d="m688,266.5c-8.65,0-16.73-1.32-22.75-3.71-5.72-2.27-7.75-4.81-7.75-6.29l.16-1.75,17.47-156.25h25.74l17.51,156.62.12,1.41c0,1.46-2.03,4-7.75,6.27-6.02,2.39-14.1,3.71-22.75,3.71Z"/><path d="m697.74,102l17.11,153.08.11,1.15c-1.51,2.16-10.69,6.77-26.96,6.77s-25.46-4.61-26.96-6.78l.07-.84,17.15-153.39h19.48m6.26-7h-32l-18,161h.03c-.02.17-.03.33-.03.5,0,7.46,15.22,13.5,34,13.5s34-6.04,34-13.5c0-.17-.02-.33-.03-.5h.03l-18-161h0Z"/><path class="cls-3" d="m688,266.5c-8.65,0-16.73-1.32-22.75-3.71-5.72-2.27-7.75-4.81-7.75-6.29l.16-1.75,17.47-156.25h25.74l17.51,156.62.12,1.41c0,1.46-2.03,4-7.75,6.27-6.02,2.39-14.1,3.71-22.75,3.71Z"/><path d="m697.74,102l17.11,153.08.11,1.15c-1.51,2.16-10.69,6.77-26.96,6.77s-25.46-4.61-26.96-6.78l.07-.84,17.15-153.39h19.48m6.26-7h-32l-18,161h.03c-.02.17-.03.33-.03.5,0,7.46,15.22,13.5,34,13.5s34-6.04,34-13.5c0-.17-.02-.33-.03-.5h.03l-18-161h0Z"/><circle class="cls-3" cx="689" cy="68" r="31"/><path d="m689,40.5c15.16,0,27.5,12.34,27.5,27.5s-12.34,27.5-27.5,27.5-27.5-12.34-27.5-27.5,12.34-27.5,27.5-27.5m0-7c-19.05,0-34.5,15.45-34.5,34.5s15.45,34.5,34.5,34.5,34.5-15.45,34.5-34.5-15.45-34.5-34.5-34.5h0Z"/><rect class="cls-6" x="397" y="540" width="355" height="153" rx="64.54" ry="64.54"/><circle class="cls-1" cx="540" cy="617" r="79.5"/><path d="m540,541c41.91,0,76,34.09,76,76s-34.09,76-76,76-76-34.09-76-76,34.09-76,76-76m0-7c-45.84,0-83,37.16-83,83s37.16,83,83,83,83-37.16,83-83-37.16-83-83-83h0Z"/><circle class="cls-1" cx="670" cy="618" r="82.5"/><path d="m670,539c43.56,0,79,35.44,79,79s-35.44,79-79,79-79-35.44-79-79,35.44-79,79-79m0-7c-47.5,0-86,38.5-86,86s38.5,86,86,86,86-38.5,86-86-38.5-86-86-86h0Z"/><rect x="525" y="606" width="24" height="24"/><rect x="658" y="606" width="24" height="24"/><path class="cls-4" d="m434.6,710.5l-.26-.04c-30.52-4.6-44.68-23.9-51.2-39.28-6.72-15.87-6.8-30.57-6.79-32.15-.11-2.31-1.86-41.07,0-70.2,2.04-31.76,33.52-46.46,34.85-47.07l.16-.07,63.38-21.64,31.52-10.19,1.07.34c37.33,11.85,82.11,17.85,133.09,17.85,64.59,0,116.56-9.9,117.08-10l.51-.1.52.05c29.47,3.07,44.26,20.32,51.48,34.25,7.74,14.93,8.56,28.99,8.59,29.58v.18s0,78.62,0,78.62l-.04.27c-4.16,26.3-25.14,46.68-60.68,58.95-26.32,9.09-51.03,10.57-52.07,10.63h-.1s-271.11,0-271.11,0Zm26.94-167c-33.66,0-61.04,27.38-61.04,61.04v23.92c0,33.66,27.38,61.04,61.04,61.04h225.92c33.66,0,61.04-27.38,61.04-61.04v-23.92c0-33.66-27.38-61.04-61.04-61.04h-225.92Z"/><path d="m506.28,493.53c43.55,13.82,91.7,18.02,134.14,18.02,65.72,0,117.74-10.07,117.74-10.07,54.04,5.63,56.94,60.54,56.94,60.54v78.35c-9.65,61-109.49,66.63-109.49,66.63h-270.75c-55.97-8.45-55.01-68.04-55.01-68.04,0,0-1.93-39.88,0-69.91,1.93-30.03,32.81-44.11,32.81-44.11l63.21-21.58,30.4-9.83m-44.74,199.47h225.92c35.5,0,64.54-29.04,64.54-64.54v-23.92c0-35.5-29.04-64.54-64.54-64.54h-225.92c-35.5,0-64.54,29.04-64.54,64.54v23.92c0,35.5,29.04,64.54,64.54,64.54m44.72-206.82l-2.13.69-30.4,9.83-.05.02-.05.02-63.21,21.58-.33.11-.31.14c-1.42.65-34.72,16.2-36.9,50.03-1.88,29.32-.18,67.1-.02,70.51,0,2.22.23,17.29,7.07,33.44,6.86,16.2,21.78,36.53,53.9,41.38l.52.08h271.67c1.06-.07,26.24-1.58,53.02-10.82,36.84-12.72,58.62-34.06,62.99-61.71l.09-.54v-79.27c-.04-.62-.91-15.42-8.99-31.01-7.62-14.7-23.21-32.89-54.23-36.12l-1.03-.11-1.02.2c-.51.1-52.19,9.94-116.41,9.94-50.62,0-95.04-5.95-132.03-17.69l-2.14-.68h0Zm-44.72,199.82c-15.3,0-29.73-6-40.63-16.91-10.9-10.9-16.91-25.33-16.91-40.63v-23.92c0-15.3,6-29.73,16.91-40.63s25.33-16.91,40.63-16.91h225.92c15.3,0,29.73,6,40.63,16.91,10.9,10.9,16.91,25.33,16.91,40.63v23.92c0,15.3-6,29.73-16.91,40.63-10.9,10.9-25.33,16.91-40.63,16.91h-225.92Z"/><polyline class="cls-7" points="518.5 898.5 534.5 903.5 535.5 768"/><line class="cls-7" x1="574.5" y1="770.88" x2="574.5" y2="910.6"/><line class="cls-7" x1="671.75" y1="768.06" x2="671.75" y2="915"/><line class="cls-7" x1="771.75" y1="759.06" x2="771.75" y2="899"/></g></svg>