<?xml version="1.0" encoding="utf-8"?>
<!-- Generator: Adobe Illustrator 27.4.0, SVG Export Plug-In . SVG Version: 6.00 Build 0)  -->
<svg version="1.1" id="Layer_2_00000109009327279054110890000002609928229054639013_"
	 xmlns="http://www.w3.org/2000/svg" xmlns:xlink="http://www.w3.org/1999/xlink" x="0px" y="0px" viewBox="0 0 613.9 940.7"
	 style="enable-background:new 0 0 613.9 940.7;" xml:space="preserve">
<style type="text/css">
	.st0{fill:#A9C5D9;}
	.st1{fill:#B8D4EB;}
	.st2{fill:#4D4D4D;}
	.st3{fill:#FFF9C6;}
	.st4{fill:#A8C5DB;}
	.st5{fill:none;stroke:#000000;stroke-width:7;stroke-miterlimit:10;}
</style>
<path class="st0" d="M294,937.3c-37.2,0-77.3-4.9-112.8-13.8c-30.7-7.7-47.3-15.5-50.1-18.4v-55.2c5.8-1.2,19.7-3.8,31.9-4.3
	l-0.5,24.7l2.8,0.6c0.5,0.1,51.3,11.7,107.1,11.7c10.2,0,20.1-0.4,29.4-1.2c1.5-0.1,31.8-1.8,63.6-7.3c44-7.6,70.1-18.6,77.5-32.7
	c26.1-30.8,8.6-75.8,7.9-77.8c-16.3-38.3-49-40.2-55.4-40.2c-0.7,0-1,0-1,0l-0.3,0l-0.3,0.1c-59,12.8-184,12.9-185.3,12.9h-0.1
	c-2.6,0.1-5.2,0.1-7.9,0.1c-47.4,0-87.9-14.3-97.5-18V466l31.5-10.5v-67c0-77.5,81.2-140.5,181-140.5s181,63,181,140.5V878
	c-3.7,9.9-21.8,25-61.9,38.4c-39.9,13.4-89.5,20.8-139.6,20.9L294,937.3L294,937.3z"/>
<path d="M315.5,251.5c97.9,0,177.5,61.5,177.5,137v488.8c-3.8,8.7-21.3,23-59.5,35.8c-39.5,13.2-88.7,20.6-138.5,20.7h-1
	c-46.3,0-85.3-7.1-109.9-13.1c-27.7-6.8-44.7-14-49.6-17.3v-50.7c5.8-1.1,15.6-2.8,24.9-3.5l-0.3,18.1l-0.1,5.7l5.5,1.3
	c2.1,0.5,51.7,11.8,107.9,11.8c10.3,0,20.3-0.4,29.7-1.2c2.3-0.1,32-1.8,64-7.3c45.4-7.8,71.6-19,79.9-34.2c27.1-32.3,9-79,8.2-81
	l0-0.1l0-0.1C436.9,722,402.2,720,395.4,720c-0.7,0-1.1,0-1.2,0l-0.5,0l-0.5,0.1C334.5,732.8,209.8,733,208.5,733h-0.2
	c-2.5,0.1-5.2,0.1-7.8,0.1c-43.7,0-81.6-12.4-94-16.9V468.5l26.7-8.9l4.8-1.6v-69.6C138,312.9,217.7,251.5,315.5,251.5 M315.5,244.5
	c-101.9,0-184.5,64.5-184.5,144V453l-31.5,10.5V721c0,0,45.5,19.1,101,19.1c2.6,0,5.3,0,8-0.1c0,0,126,0,186-13c0,0,0.3,0,0.8,0
	c5.5,0,36.7,1.7,52.2,38c0,0,17.9,45-7.5,74.5c-16,32-138.5,38.5-138.5,38.5c-9.8,0.8-19.6,1.2-29.2,1.2
	c-56.1,0-106.3-11.7-106.3-11.7l0.5-25.5c-17,0-39,5-39,5v59c1.3,7.4,75.9,34.8,166.5,34.8c0.3,0,0.7,0,1,0
	c111-0.3,196-35.3,205-62.2V388.5C500,309,417.4,244.5,315.5,244.5L315.5,244.5L315.5,244.5z"/>
<path class="st1" d="M315.5,274.8c-16.8,0-32.5-2.6-44.3-7.5c-10.6-4.3-16.7-10-16.7-15.4c0-12.5,27.8-36.9,61.5-36.9
	s60.5,24.6,60.5,36.9C376.5,262.7,351.5,274.8,315.5,274.8L315.5,274.8z"/>
<path d="M316,218.5c19.6,0,34.3,8.4,41.3,13.4c11.5,8.3,15.7,16.5,15.7,20c0,3.8-5.7,8.6-14.5,12.2c-11.4,4.6-26.6,7.2-43,7.2
	s-31.6-2.6-43-7.2c-8.8-3.6-14.5-8.4-14.5-12.2c0-0.8,0.3-3.6,3.8-8.3c3-4,7.3-8,12.4-11.6C281.3,226.9,296.3,218.5,316,218.5
	 M316,211.5c-35.6,0-65,25.8-65,40.4s28.9,26.4,64.5,26.4s64.5-11.8,64.5-26.4S351.6,211.5,316,211.5L316,211.5L316,211.5z"/>
<path class="st1" d="M316,233c-8.7,0-16.7-1.3-22.8-3.7c-5.7-2.3-7.8-4.8-7.8-6.3l0.2-1.8L303.1,65h25.7l17.5,156.6l0.1,1.4
	c0,1.5-2,4-7.8,6.3C332.7,231.7,324.7,233,316,233L316,233z"/>
<path d="M325.7,68.5l17.1,153.1l0.1,1.2c-1.5,2.2-10.7,6.8-27,6.8s-25.5-4.6-27-6.8l0.1-0.8l17.2-153.4L325.7,68.5 M332,61.5h-32
	l-18,161h0c0,0.2,0,0.3,0,0.5c0,7.5,15.2,13.5,34,13.5s34-6,34-13.5c0-0.2,0-0.3,0-0.5h0L332,61.5L332,61.5L332,61.5z"/>
<path class="st1" d="M316,233c-8.7,0-16.7-1.3-22.8-3.7c-5.7-2.3-7.8-4.8-7.8-6.3l0.2-1.8L303.1,65h25.7l17.5,156.6l0.1,1.4
	c0,1.5-2,4-7.8,6.3C332.7,231.7,324.7,233,316,233L316,233z"/>
<path d="M325.7,68.5l17.1,153.1l0.1,1.2c-1.5,2.2-10.7,6.8-27,6.8s-25.5-4.6-27-6.8l0.1-0.8l17.2-153.4L325.7,68.5 M332,61.5h-32
	l-18,161h0c0,0.2,0,0.3,0,0.5c0,7.5,15.2,13.5,34,13.5s34-6,34-13.5c0-0.2,0-0.3,0-0.5h0L332,61.5L332,61.5L332,61.5z"/>
<circle class="st1" cx="317" cy="34.5" r="31"/>
<path d="M317,7c15.2,0,27.5,12.3,27.5,27.5S332.2,62,317,62s-27.5-12.3-27.5-27.5S301.8,7,317,7 M317,0c-19,0-34.5,15.5-34.5,34.5
	S298,69,317,69s34.5-15.4,34.5-34.5S336.1,0,317,0L317,0z"/>
<path class="st2" d="M89.5,506.5h225.9c35.6,0,64.5,28.9,64.5,64.5V595c0,35.6-28.9,64.5-64.5,64.5H89.5C53.9,659.5,25,630.6,25,595
	V571C25,535.4,53.9,506.5,89.5,506.5z"/>
<circle class="st3" cx="168" cy="583.5" r="79.5"/>
<path d="M168,507.5c41.9,0,76,34.1,76,76s-34.1,76-76,76s-76-34.1-76-76S126.1,507.5,168,507.5 M168,500.5c-45.8,0-83,37.2-83,83
	s37.2,83,83,83s83-37.2,83-83S213.8,500.5,168,500.5L168,500.5z"/>
<circle class="st3" cx="298" cy="583.5" r="82.5"/>
<path d="M298,504.5c43.6,0,79,35.4,79,79s-35.4,79-79,79s-79-35.4-79-79S254.4,504.5,298,504.5 M298,497.5c-47.5,0-86,38.5-86,86
	s38.5,86,86,86s86-38.5,86-86S345.5,497.5,298,497.5L298,497.5z"/>
<rect x="153" y="572.5" width="24" height="24"/>
<rect x="330" y="572.5" width="24" height="24"/>
<path class="st4" d="M62.6,677l-0.3,0c-30.5-4.6-44.7-23.9-51.2-39.3c-6.7-15.9-6.8-30.6-6.8-32.2c-0.1-2.3-1.9-41.1,0-70.2
	c2-31.8,33.5-46.5,34.9-47.1l0.2-0.1l63.4-21.6l31.5-10.2l1.1,0.3c37.3,11.9,82.1,17.9,133.1,17.9c64.6,0,116.6-9.9,117.1-10
	l0.5-0.1l0.5,0c29.5,3.1,44.3,20.3,51.5,34.3c7.7,14.9,8.6,29,8.6,29.6v0.2v78.6l0,0.3c-4.2,26.3-25.1,46.7-60.7,59
	c-26.3,9.1-51,10.6-52.1,10.6h-0.1L62.6,677L62.6,677z M89.5,510c-33.7,0-61,27.4-61,61V595c0,33.7,27.4,61,61,61h225.9
	c33.7,0,61-27.4,61-61V571c0-33.7-27.4-61-61-61H89.5L89.5,510z"/>
<path d="M134.3,460c43.6,13.8,91.7,18,134.1,18c65.7,0,117.7-10.1,117.7-10.1c54,5.6,56.9,60.5,56.9,60.5v78.3
	c-9.7,61-109.5,66.6-109.5,66.6H62.9c-56-8.5-55-68-55-68s-1.9-39.9,0-69.9s32.8-44.1,32.8-44.1l63.2-21.6L134.3,460 M89.5,659.5
	h225.9c35.5,0,64.5-29,64.5-64.5V571c0-35.5-29-64.5-64.5-64.5H89.5C54,506.5,25,535.5,25,571V595C25,630.5,54,659.5,89.5,659.5
	 M134.3,452.7l-2.1,0.7l-30.4,9.8l0,0l0,0l-63.2,21.6l-0.3,0.1l-0.3,0.1c-1.4,0.7-34.7,16.2-36.9,50c-1.9,29.3-0.2,67.1,0,70.5
	c0,2.2,0.2,17.3,7.1,33.4c6.9,16.2,21.8,36.5,53.9,41.4l0.5,0.1H334c1.1-0.1,26.2-1.6,53-10.8c36.8-12.7,58.6-34.1,63-61.7l0.1-0.5
	v-79.3c0-0.6-0.9-15.4-9-31c-7.6-14.7-23.2-32.9-54.2-36.1l-1-0.1l-1,0.2c-0.5,0.1-52.2,9.9-116.4,9.9c-50.6,0-95-6-132-17.7
	L134.3,452.7L134.3,452.7L134.3,452.7z M89.5,652.5c-15.3,0-29.7-6-40.6-16.9C38,624.7,32,610.3,32,595V571c0-15.3,6-29.7,16.9-40.6
	s25.3-16.9,40.6-16.9h225.9c15.3,0,29.7,6,40.6,16.9C367,541.3,373,555.7,373,571V595c0,15.3-6,29.7-16.9,40.6
	c-10.9,10.9-25.3,16.9-40.6,16.9H89.5z"/>
<polyline class="st5" points="146.5,865 162.5,870 163.5,734.5 "/>
<line class="st5" x1="202.5" y1="737.4" x2="202.5" y2="877.1"/>
<line class="st5" x1="299.8" y1="734.6" x2="299.8" y2="881.5"/>
<line class="st5" x1="399.8" y1="725.6" x2="399.8" y2="865.5"/>
</svg>
